ply
format ascii 1.0
comment VTK generated PLY File
obj_info vtkPolyData points and polygons: vtk4.0
element vertex 180
property float x
property float y
property float z
element face 120
property list uchar int vertex_indices
end_header
0.5 0.5 0.5 
0.5 0.5 0.5 
0.5 0.5 0.5 
0.5 0.5 0.5 
0 0 -0.5 
-0.5 0 0 
-0.5 0 -0.5 
0.5 0 0 
0 0.5 0 
0 -0.5 -0.5 
-0.5 -0.5 0 
0 -0.5 -0.5 
1.5 1.5 1.5 
1.5 1.5 1.5 
1.5 1.5 1.5 
1.5 1.5 1.5 
-1.5 -1.5 -1.5 
-1.5 -1.5 -1.5 
-1.5 -1.5 -1.5 
-1.5 -1.5 -0.5 
-1 -0.5 -1 
-1 -1 -0.5 
-1 -1 -0.5 
-0.5 -1 -0.5 
0.5 0.5 1 
0.5 1 0.5 
0.5 1 1 
0.5 -1 -0.5 
-0.5 1 0.5 
1 1 1 
0 0.207562 0.152967 
0 -0.5 0.5 
0.5 0.5 0.5 
-0.5 -0.5 -0.5 
-0.5 -0.5 -0.152971 
0.207562 0.152967 -0.207567 
0 0 0 
-0.5 -0.5 0.5 
0.5 0 0 
0 0 0 
-1 -1 -0.152971 
-0.152971 0.207562 0.207562 
0.152967 0.152967 0.152967 
-0.207567 -0.207567 0 
0 1 1 
1 1 0.5 
1 0.5 0 
0 -0.5 -0.5 
-1 -1 -1 
1 1 1 
1 -1 -1 
-1 -1 -1 
0.5 0.5 1 
0 -0.5 -0.5 
-1 0.5 1 
-0.5 -1 -0.5 
0.5 -0.5 0 
1 1 0.5 
1 0.5 0 
0 -0.5 -0.5 
-1 -1 -1 
-0.5 -0.5 -1 
0 0.5 0.5 
1 -0.5 -1 
0.5 1 -0.5 
-1 0 0 
0.5 1 1 
0.5 1 0 
-0.5 -0.5 -1 
-1 -0.5 -0.5 
0 0 0.5 
1 1 -1 
-1 -1 -1 
1 1 1 
0.5 0 -0.5 
-1 -1 -1 
-1 -1 -1 
0 0.5 1 
0 0.5 0.5 
0 -0.5 1 
1 1 1 
-0.5 0 0.5 
0 -0.5 -0.5 
0.5 -0.5 0 
-0.5 0 0.5 
0 -0.5 0.5 
-0.5 0.5 0 
0.5 0 -0.5 
0 -0.5 0.5 
-0.5 -0.5 0 
0.5 1 1 
1.5 1.5 1 
1.5 1 0.5 
1 0.5 1.5 
1.5 1 1 
0.5 1.5 1 
1 0.5 0.5 
-1.5 -1.5 -1.5 
-1.5 -1.5 -1.5 
-1.5 -1.5 -1.5 
-1.5 -1.5 1.5 
1.5 1.5 1.5 
-0.5 0 0 
0.5 0.5 0 
0.5 0 -0.5 
0 -0.5 0.5 
0.5 0 0 
0 0.5 0 
0 -0.5 -0.5 
-0.5 -0.5 0.5 
0.5 0.5 0.5 
0.5 0.5 -0.5 
-0.5 -0.5 -0.5 
-0.5 -0.5 -0.5 
-0.5 -0.5 -0.5 
-0.5 -0.5 -0.5 
-0.5 -0.5 0.5 
0 0 0 
0 0 0 
0.5 0.5 0.5 
-0.5 -0.207566 0.152968 
-1 -1 -1 
-1 -1 -1 
1 1 -1 
-1 -1 -0.152972 
-0.207566 0.152968 0.207561 
-0.5 -0.5 -0.5 
0 0 0 
0 0.5 0.5 
-1 -1 -1 
0 0 -0.152972 
-0.152972 -0.207566 -0.207566 
0.152968 0.152968 0.152968 
0.207561 0.207561 1 
1 0 0 
0 0 0 
0 0 0 
0 0 0 
0 0 0 
0 0 0 
0 0 0 
0 0 0 
0 0 0 
0 0 0 
0 0 0 
0 0 0 
0 0 0 
0 0 0 
0 0 0 
0 0 0 
0 0 0 
0 0 0 
0 0 0 
0 0 0 
0 0 0 
0 0 0 
0 0 0 
0 0 0 
0 0 0 
0 0 0 
0 0 0 
0 0 0 
0 0 0 
0 0 0 
0 0 0 
0 0 0 
0 0 0 
0 0 0 
0 0 0 
0 0 0 
0 0 0 
1.1 1.1 1.1 
1.1 1.1 1.1 
1.1 1.1 1.1 
1.1 1.1 1.1 
1.1 1.1 1.1 
1.1 1.1 1.1 
1.1 1.1 1.1 
1.1 1.1 1.1 
1.1 1.1 1.1 
3 125 94 120 
3 124 137 92 
3 144 156 124 
3 120 96 126 
3 156 144 97 
3 127 34 40 
3 41 36 156 
3 137 125 124 
3 33 34 36 
3 35 127 156 
3 124 126 136 
3 90 92 137 
3 157 145 144 
3 156 127 97 
3 100 128 156 
3 144 145 157 
3 32 39 40 
3 34 157 136 
3 137 156 31 
3 32 34 33 
3 128 157 156 
3 127 134 87 
3 90 136 158 
3 146 145 157 
3 128 100 102 
3 129 157 145 
3 146 158 29 
3 37 39 32 
3 158 134 136 
3 157 28 29 
3 32 31 129 
3 158 157 128 
3 135 86 87 
3 134 143 139 
3 146 158 129 
3 102 104 130 
3 158 146 139 
3 143 30 38 
3 37 29 143 
3 135 134 158 
3 27 30 29 
3 28 130 143 
3 158 129 83 
3 84 85 20 
3 147 159 111 
3 112 69 70 
3 72 71 84 
3 159 111 85 
3 86 89 88 
3 87 112 111 
3 159 147 70 
3 76 77 72 
3 159 88 89 
3 111 81 82 
3 84 83 148 
3 160 159 147 
3 67 68 70 
3 69 82 160 
3 159 84 87 
3 88 91 90 
3 147 159 160 
3 148 68 75 
3 76 70 160 
3 91 88 159 
3 78 79 82 
3 81 149 161 
3 160 148 64 
3 65 68 67 
3 79 161 160 
3 82 90 91 
3 93 92 148 
3 160 161 149 
3 65 73 75 
3 68 161 93 
3 91 160 26 
3 80 79 78 
3 110 109 161 
3 149 63 66 
3 65 64 80 
3 109 161 79 
3 92 93 95 
3 94 149 161 
3 109 110 66 
3 74 73 65 
3 109 95 93 
3 161 86 138 
3 112 112 87 
3 162 147 147 
3 162 147 87 
3 87 163 148 
3 90 90 163 
3 148 90 90 
3 164 149 92 
3 92 110 119 
3 94 94 149 
3 164 92 92 
3 86 139 138 
3 138 87 146 
3 162 162 146 
3 162 87 87 
3 145 163 90 
3 90 145 163 
3 90 90 144 
3 164 92 92 
3 119 120 94 
3 94 164 144 
3 92 92 104 
3 140 139 139 
3 102 165 146 
3 146 165 146 
3 102 102 166 
3 145 100 100 
3 166 145 100 
3 100 167 144 
3 97 97 120 
3 121 96 96 
3 144 167 97 
3 97 104 114 
3 140 140 102 
3 152 165 165 
